<svg width="600" height="181" viewBox="0 0 600 181" fill="none" xmlns="http://www.w3.org/2000/svg">
<path d="M12 62.9398L55.9375 90.8129M255.438 90.3735L212.688 45.0482L166.375 83.2169L115.312 77.253L79.6875 105.88L55.9375 90.8129M255.438 90.3735L302.938 77.253L354 90.3735M255.438 90.3735V48.6265M354 90.3735L396.75 62.9398L445.438 77.253L490.562 56.9759L536.875 83.2169H582M354 90.3735V48.6265M582 20V119M542.812 45.0482V97.5301M490.562 20V119M441.875 48.6265V97.5301M396.75 35.506V119M302.938 20V119M212.688 20V119M98.6875 20V119M12 20V119M55.9375 48.6265V90.8129M166.375 48.6265V90.8129" stroke="black"/>
<rect x="366" width="62" height="28.2646" rx="14.1323" fill="black"/>
<path d="M374.827 9.81152L372.758 11.9824L372.542 11.8237L374.491 8.89746H375.202L377.157 11.8237L376.935 11.9824L374.865 9.81152H374.827ZM383.955 8.74512V8.77051C383.934 8.85938 383.915 8.9694 383.898 9.10059C383.881 9.23177 383.866 9.39469 383.854 9.58936C383.845 9.78402 383.837 10.0168 383.828 10.2876C383.824 10.5542 383.822 10.8674 383.822 11.2271V15.1372C384.207 15.1287 384.52 15.116 384.761 15.0991C385.007 15.0822 385.202 15.0568 385.345 15.0229H385.371V15.9307H385.345C385.202 15.9053 385.007 15.882 384.761 15.8608C384.52 15.8397 384.207 15.8249 383.822 15.8164C383.826 16.1253 383.833 16.3962 383.841 16.6289C383.85 16.8617 383.862 17.0648 383.879 17.2383C383.896 17.4076 383.915 17.5535 383.936 17.6763C383.957 17.7948 383.981 17.8942 384.006 17.9746V18H382.483V17.9746C382.508 17.8942 382.531 17.7948 382.552 17.6763C382.574 17.5535 382.591 17.4076 382.603 17.2383C382.62 17.0648 382.633 16.8617 382.641 16.6289C382.654 16.3962 382.663 16.1253 382.667 15.8164H378.312V15.5308L383.822 8.74512H383.955ZM382.667 15.1372V11.1509L379.455 15.1372H382.667ZM386.406 17.873C386.469 17.7926 386.568 17.6847 386.704 17.5493C386.839 17.4097 386.996 17.2467 387.174 17.0605C387.351 16.8701 387.542 16.6585 387.745 16.4258C387.948 16.193 388.151 15.9412 388.354 15.6704C388.557 15.3996 388.752 15.1118 388.938 14.8071C389.129 14.4982 389.296 14.1766 389.44 13.8423C389.584 13.508 389.698 13.161 389.782 12.8013C389.871 12.4416 389.916 12.0734 389.916 11.6968C389.916 11.2948 389.867 10.9478 389.77 10.6558C389.677 10.3595 389.548 10.1162 389.383 9.92578C389.218 9.73112 389.023 9.58724 388.799 9.49414C388.579 9.40104 388.339 9.35449 388.081 9.35449C387.76 9.35449 387.468 9.40951 387.205 9.51953C386.947 9.62533 386.721 9.75016 386.526 9.89404C386.336 10.0379 386.179 10.1818 386.056 10.3257C385.938 10.4696 385.858 10.5796 385.815 10.6558L385.726 10.6177L386.158 9.3291C386.382 9.22754 386.592 9.14079 386.786 9.06885C386.985 8.99268 387.184 8.93132 387.383 8.88477C387.586 8.83822 387.794 8.80436 388.005 8.7832C388.221 8.75781 388.458 8.74512 388.716 8.74512C388.89 8.74512 389.074 8.76416 389.268 8.80225C389.463 8.84033 389.656 8.90169 389.846 8.98633C390.036 9.07096 390.216 9.18099 390.385 9.31641C390.559 9.44759 390.711 9.61051 390.843 9.80518C390.978 9.99561 391.084 10.2178 391.16 10.4717C391.24 10.7256 391.281 11.0155 391.281 11.3413C391.281 11.6883 391.228 12.0374 391.122 12.3887C391.016 12.7357 390.876 13.0785 390.703 13.417C390.529 13.7513 390.33 14.0793 390.106 14.4009C389.882 14.7225 389.651 15.0293 389.414 15.3213C389.177 15.6133 388.942 15.8883 388.71 16.1465C388.477 16.4004 388.267 16.6331 388.081 16.8447H390.525C390.682 16.8447 390.834 16.8426 390.982 16.8384C391.135 16.8299 391.274 16.8193 391.401 16.8066C391.528 16.7897 391.638 16.7686 391.731 16.7432C391.829 16.7178 391.903 16.686 391.953 16.6479H391.979V18H386.406V17.873ZM392.982 17.4414C392.982 17.3483 392.999 17.2616 393.032 17.1812C393.071 17.0965 393.119 17.0246 393.178 16.9653C393.242 16.9019 393.314 16.8532 393.394 16.8193C393.479 16.7812 393.568 16.7622 393.661 16.7622C393.758 16.7622 393.847 16.7812 393.927 16.8193C394.012 16.8532 394.084 16.9019 394.143 16.9653C394.207 17.0246 394.255 17.0965 394.289 17.1812C394.327 17.2616 394.346 17.3483 394.346 17.4414C394.346 17.6361 394.281 17.799 394.15 17.9302C394.018 18.0614 393.856 18.127 393.661 18.127C393.568 18.127 393.479 18.1079 393.394 18.0698C393.314 18.036 393.242 17.9894 393.178 17.9302C393.119 17.8667 393.071 17.7948 393.032 17.7144C392.999 17.6297 392.982 17.5387 392.982 17.4414ZM400.929 10.6812C400.929 10.9097 400.882 11.1234 400.789 11.3223C400.7 11.5212 400.58 11.7095 400.427 11.8872C400.279 12.0607 400.108 12.2257 399.913 12.3823C399.719 12.5347 399.516 12.6785 399.304 12.814C399.575 13.0044 399.839 13.2033 400.097 13.4106C400.36 13.6138 400.593 13.8296 400.796 14.0581C400.999 14.2824 401.162 14.5236 401.284 14.7817C401.411 15.0356 401.475 15.3107 401.475 15.6069C401.475 15.9412 401.407 16.265 401.272 16.5781C401.136 16.887 400.942 17.1621 400.688 17.4033C400.434 17.6445 400.123 17.8371 399.755 17.981C399.386 18.1248 398.968 18.1968 398.498 18.1968C397.973 18.1968 397.522 18.1291 397.146 17.9937C396.773 17.8582 396.467 17.6784 396.225 17.4541C395.984 17.2256 395.806 16.9674 395.692 16.6797C395.578 16.3919 395.521 16.0957 395.521 15.791C395.521 15.499 395.574 15.2303 395.679 14.9849C395.789 14.7394 395.94 14.5109 396.13 14.2993C396.321 14.0835 396.547 13.8846 396.809 13.7026C397.076 13.5164 397.366 13.3408 397.679 13.1758C397.459 13.0065 397.247 12.8351 397.044 12.6616C396.845 12.4881 396.67 12.3083 396.517 12.1221C396.365 11.9359 396.242 11.7433 396.149 11.5444C396.06 11.3413 396.016 11.1276 396.016 10.9033C396.016 10.5055 396.094 10.1712 396.251 9.90039C396.407 9.62533 396.606 9.40316 396.847 9.23389C397.093 9.06038 397.359 8.93555 397.647 8.85938C397.939 8.7832 398.219 8.74512 398.485 8.74512C398.828 8.74512 399.147 8.78743 399.444 8.87207C399.74 8.95671 399.998 9.08154 400.218 9.24658C400.438 9.40739 400.612 9.6084 400.739 9.84961C400.865 10.0908 400.929 10.368 400.929 10.6812ZM400.212 16.0005C400.212 15.7508 400.148 15.5138 400.021 15.2896C399.894 15.0653 399.729 14.8516 399.526 14.6484C399.323 14.4411 399.09 14.2401 398.828 14.0454C398.57 13.8465 398.307 13.6476 398.041 13.4487C397.753 13.6307 397.516 13.8127 397.33 13.9946C397.144 14.1724 396.996 14.3543 396.885 14.5405C396.775 14.7267 396.697 14.9214 396.651 15.1245C396.608 15.3276 396.587 15.5456 396.587 15.7783C396.587 16.0745 396.636 16.3411 396.733 16.5781C396.83 16.8151 396.966 17.0182 397.139 17.1875C397.313 17.3525 397.518 17.4816 397.755 17.5747C397.992 17.6636 398.248 17.7101 398.523 17.7144C398.747 17.7186 398.961 17.6868 399.164 17.6191C399.367 17.5472 399.547 17.4393 399.704 17.2954C399.86 17.1515 399.983 16.9717 400.072 16.7559C400.165 16.54 400.212 16.2882 400.212 16.0005ZM397.247 10.5352C397.247 10.7256 397.292 10.9076 397.381 11.0811C397.474 11.2503 397.596 11.4175 397.749 11.5825C397.901 11.7433 398.079 11.9041 398.282 12.0649C398.485 12.2215 398.699 12.3802 398.923 12.541C399.097 12.4352 399.253 12.321 399.393 12.1982C399.532 12.0755 399.651 11.9401 399.748 11.792C399.85 11.6439 399.926 11.481 399.977 11.3032C400.032 11.1213 400.059 10.9224 400.059 10.7065C400.059 10.4188 400.013 10.1797 399.92 9.98926C399.831 9.7946 399.717 9.64014 399.577 9.52588C399.437 9.41162 399.283 9.33122 399.114 9.28467C398.948 9.23812 398.79 9.21484 398.637 9.21484C398.46 9.21484 398.286 9.24235 398.117 9.29736C397.952 9.35238 397.804 9.4349 397.673 9.54492C397.546 9.65495 397.442 9.79248 397.362 9.95752C397.285 10.1226 397.247 10.3151 397.247 10.5352ZM402.192 19.1045C402.802 18.9521 403.36 18.7617 403.868 18.5332C404.38 18.3047 404.822 18.036 405.195 17.7271C405.567 17.4139 405.857 17.0584 406.064 16.6606C406.272 16.2629 406.375 15.8206 406.375 15.334C406.375 14.8516 406.278 14.4411 406.083 14.1025C405.889 13.764 405.622 13.4868 405.283 13.271C404.949 13.0552 404.553 12.8965 404.096 12.7949C403.644 12.6934 403.159 12.6383 402.643 12.6299L403.462 8.89746H404.674C405.034 8.89746 405.347 8.89746 405.614 8.89746C405.884 8.89323 406.117 8.89111 406.312 8.89111C406.506 8.88688 406.669 8.88265 406.801 8.87842C406.932 8.87419 407.042 8.86784 407.131 8.85938H407.156V10.2368H407.131C407.042 10.2114 406.932 10.1882 406.801 10.167C406.669 10.1458 406.506 10.1268 406.312 10.1099C406.117 10.0929 405.884 10.0802 405.614 10.0718C405.347 10.0633 405.034 10.0591 404.674 10.0591H403.735L403.398 11.4873C403.741 11.4958 404.08 11.5296 404.414 11.5889C404.748 11.6439 405.068 11.7306 405.372 11.8491C405.677 11.9634 405.958 12.1094 406.217 12.2871C406.479 12.4606 406.705 12.668 406.896 12.9092C407.086 13.1462 407.234 13.4191 407.34 13.728C407.45 14.0327 407.505 14.3734 407.505 14.75C407.505 15.2367 407.431 15.6768 407.283 16.0703C407.135 16.4639 406.934 16.8193 406.68 17.1367C406.426 17.4541 406.13 17.7355 405.791 17.981C405.453 18.2264 405.091 18.4422 404.706 18.6284C404.325 18.8146 403.931 18.9754 403.525 19.1108C403.119 19.2463 402.721 19.3605 402.332 19.4536L402.192 19.1045ZM409.467 11.1636C409.467 11.3921 409.509 11.6058 409.594 11.8047C409.678 12.0036 409.792 12.1792 409.936 12.3315C410.084 12.4797 410.256 12.5981 410.45 12.687C410.649 12.7716 410.863 12.814 411.092 12.814C411.324 12.814 411.538 12.7716 411.733 12.687C411.932 12.5981 412.103 12.4797 412.247 12.3315C412.395 12.1792 412.509 12.0036 412.59 11.8047C412.674 11.6058 412.717 11.3921 412.717 11.1636C412.717 10.9308 412.674 10.7129 412.59 10.5098C412.509 10.3066 412.395 10.1289 412.247 9.97656C412.103 9.82422 411.932 9.70573 411.733 9.62109C411.538 9.53223 411.324 9.48779 411.092 9.48779C410.863 9.48779 410.649 9.53223 410.45 9.62109C410.256 9.70573 410.084 9.82422 409.936 9.97656C409.792 10.1289 409.678 10.3066 409.594 10.5098C409.509 10.7129 409.467 10.9308 409.467 11.1636ZM408.698 11.1509C408.698 10.8208 408.762 10.5098 408.889 10.2178C409.016 9.92578 409.187 9.67188 409.403 9.45605C409.619 9.236 409.871 9.0625 410.158 8.93555C410.45 8.80859 410.761 8.74512 411.092 8.74512C411.422 8.74512 411.733 8.80859 412.025 8.93555C412.317 9.0625 412.571 9.236 412.786 9.45605C413.006 9.67188 413.18 9.92578 413.307 10.2178C413.434 10.5098 413.497 10.8208 413.497 11.1509C413.497 11.481 413.434 11.792 413.307 12.084C413.18 12.3717 413.006 12.6235 412.786 12.8394C412.571 13.0552 412.317 13.2266 412.025 13.3535C411.733 13.4805 411.422 13.5439 411.092 13.5439C410.761 13.5439 410.45 13.4805 410.158 13.3535C409.871 13.2266 409.619 13.0552 409.403 12.8394C409.187 12.6235 409.016 12.3717 408.889 12.084C408.762 11.792 408.698 11.481 408.698 11.1509ZM416.436 8.66895L416.957 9.00537L410.844 18.3364L410.323 18L416.436 8.66895ZM414.665 15.8164C414.665 16.0449 414.708 16.2586 414.792 16.4575C414.877 16.6564 414.991 16.832 415.135 16.9844C415.283 17.1325 415.455 17.251 415.649 17.3398C415.848 17.4245 416.062 17.4668 416.29 17.4668C416.523 17.4668 416.737 17.4245 416.931 17.3398C417.13 17.251 417.302 17.1325 417.446 16.9844C417.594 16.832 417.708 16.6564 417.788 16.4575C417.873 16.2586 417.915 16.0449 417.915 15.8164C417.915 15.5879 417.873 15.3721 417.788 15.1689C417.708 14.9658 417.594 14.7881 417.446 14.6357C417.302 14.4834 417.13 14.3628 416.931 14.2739C416.737 14.1851 416.523 14.1406 416.29 14.1406C416.062 14.1406 415.848 14.1851 415.649 14.2739C415.455 14.3628 415.283 14.4834 415.135 14.6357C414.991 14.7881 414.877 14.9658 414.792 15.1689C414.708 15.3721 414.665 15.5879 414.665 15.8164ZM413.904 15.8037C413.904 15.4736 413.967 15.1626 414.094 14.8706C414.221 14.5786 414.392 14.3247 414.608 14.1089C414.824 13.8888 415.076 13.7153 415.364 13.5884C415.656 13.4614 415.964 13.3979 416.29 13.3979C416.62 13.3979 416.931 13.4614 417.223 13.5884C417.515 13.7153 417.769 13.8888 417.985 14.1089C418.205 14.3247 418.379 14.5786 418.506 14.8706C418.633 15.1626 418.696 15.4736 418.696 15.8037C418.696 16.1338 418.633 16.4448 418.506 16.7368C418.379 17.0246 418.205 17.2764 417.985 17.4922C417.769 17.708 417.515 17.8794 417.223 18.0063C416.931 18.1333 416.62 18.1968 416.29 18.1968C415.964 18.1968 415.656 18.1333 415.364 18.0063C415.076 17.8794 414.824 17.708 414.608 17.4922C414.392 17.2764 414.221 17.0246 414.094 16.7368C413.967 16.4448 413.904 16.1338 413.904 15.8037Z" fill="#B0A0FF"/>
<path d="M14.56 161H13.12L12.82 157.1L12.14 150.72H12L8.44 159.52H7.12L3.74 150.72H3.58L2.9 156.98L2.56 161H1.2L2.54 148.18H4.36L5.02 150.14L7.8 157.44H7.92L10.84 150.02L11.5 148.18H13.3L14.56 161ZM20.4106 151.68C21.6506 151.68 22.6106 152.087 23.2906 152.9C23.984 153.7 24.3306 154.833 24.3306 156.3C24.3306 157.847 23.9706 159.047 23.2506 159.9C22.5306 160.74 21.504 161.16 20.1706 161.16C18.9173 161.16 17.944 160.76 17.2506 159.96C16.5706 159.147 16.2306 158.007 16.2306 156.54C16.2306 154.993 16.5906 153.8 17.3106 152.96C18.044 152.107 19.0773 151.68 20.4106 151.68ZM20.3106 152.8C19.4706 152.8 18.8306 153.087 18.3906 153.66C17.9506 154.233 17.7306 155.073 17.7306 156.18C17.7306 157.46 17.944 158.42 18.3706 159.06C18.8106 159.7 19.444 160.02 20.2706 160.02C21.1106 160.02 21.7506 159.74 22.1906 159.18C22.6306 158.62 22.8506 157.78 22.8506 156.66C22.8506 155.393 22.6306 154.433 22.1906 153.78C21.764 153.127 21.1373 152.8 20.3106 152.8ZM100.61 148.34L100.49 149.58L98.2505 149.46H96.9505L96.8905 157L96.9505 161H95.3305L95.4505 157.14L95.3505 149.46H94.0505L91.7705 149.58L91.6705 149.42L91.7905 148.18H100.49L100.61 148.34ZM109.351 159.82L109.191 160.72C108.804 160.947 108.424 161.08 108.051 161.12C107.664 161.067 107.351 160.933 107.111 160.72C106.884 160.493 106.724 160.16 106.631 159.72H106.511C105.711 160.44 104.884 160.907 104.031 161.12C103.044 161.12 102.291 160.887 101.771 160.42C101.264 159.953 101.017 159.287 101.031 158.42L101.051 155.88L100.991 151.94L102.591 151.8L102.471 158.04C102.471 158.587 102.597 159.013 102.851 159.32C103.117 159.627 103.504 159.78 104.011 159.78C104.837 159.78 105.664 159.38 106.491 158.58V151.94L108.011 151.8L107.911 159.04C107.911 159.32 107.951 159.52 108.031 159.64C108.124 159.747 108.277 159.8 108.491 159.8C108.704 159.8 108.937 159.76 109.191 159.68L109.351 159.82ZM208.666 161H207.006L204.506 153.56H204.366L201.726 161H200.066L195.986 148.18H197.586L197.806 149.42L200.926 159.22H201.066L203.826 151.42L202.746 148.18H204.386L204.686 149.56L207.846 159.22H207.966L211.446 149.5L211.746 148.18H213.266L208.666 161ZM214.859 156.36V156.4C214.859 157.52 215.112 158.38 215.619 158.98C216.126 159.58 216.846 159.88 217.779 159.88C218.246 159.88 218.712 159.807 219.179 159.66C219.646 159.5 220.072 159.28 220.459 159L220.619 159.12L220.379 160.48C219.446 160.933 218.512 161.16 217.579 161.16C216.272 161.16 215.246 160.747 214.499 159.92C213.752 159.08 213.379 157.933 213.379 156.48C213.379 155.013 213.752 153.847 214.499 152.98C215.246 152.113 216.252 151.68 217.519 151.68C218.586 151.68 219.412 151.987 219.999 152.6C220.586 153.2 220.879 154.04 220.879 155.12C220.879 155.48 220.852 155.82 220.799 156.14L220.599 156.34L214.859 156.36ZM217.519 152.8C216.852 152.8 216.292 153.02 215.839 153.46C215.399 153.887 215.106 154.493 214.959 155.28L219.379 155.2L219.419 154.92C219.419 154.24 219.252 153.72 218.919 153.36C218.599 152.987 218.132 152.8 217.519 152.8ZM303.755 148.34L303.635 149.58L301.395 149.46H300.095L300.035 157L300.095 161H298.475L298.595 157.14L298.495 149.46H297.195L294.915 149.58L294.815 149.42L294.935 148.18H303.635L303.755 148.34ZM311.444 154.78C311.458 154.233 311.331 153.807 311.064 153.5C310.798 153.193 310.404 153.04 309.884 153.04C309.004 153.04 308.104 153.513 307.184 154.46L307.144 156.98L307.244 161H305.664L305.784 157.1L305.684 147.1L307.264 146.96L307.184 153.14H307.304C308.131 152.407 308.978 151.933 309.844 151.72C310.858 151.72 311.624 151.953 312.144 152.42C312.664 152.887 312.918 153.553 312.904 154.42L312.864 157.02L312.944 161H311.344L311.444 154.78ZM393.773 149.56L393.733 154.02L395.893 154.06L397.973 154L398.093 154.16L397.953 155.38L395.733 155.32L393.713 155.34L393.693 157L393.773 161H392.153L392.253 157.14L392.153 148.18H398.973L399.093 148.34L398.953 149.62L396.013 149.52L393.773 149.56ZM404.023 151.82C404.183 151.82 404.356 151.833 404.543 151.86V153.4L404.363 153.46C404.136 153.393 403.889 153.36 403.623 153.36C403.183 153.36 402.776 153.54 402.403 153.9C402.043 154.247 401.683 154.807 401.323 155.58L401.303 156.98L401.403 161H399.823L399.923 157.12L399.843 151.94L401.343 151.8L401.323 153.68H401.443C401.816 153.013 402.229 152.54 402.683 152.26C403.136 151.967 403.583 151.82 404.023 151.82ZM489.246 148.08C490.166 148.08 491.12 148.28 492.106 148.68L491.846 150.22L491.566 150.3C491.18 150.007 490.766 149.78 490.326 149.62C489.9 149.46 489.473 149.38 489.046 149.38C488.553 149.38 488.12 149.48 487.746 149.68C487.386 149.88 487.106 150.14 486.906 150.46C486.72 150.78 486.626 151.113 486.626 151.46C486.626 151.82 486.733 152.14 486.946 152.42C487.173 152.687 487.453 152.92 487.786 153.12C488.12 153.32 488.573 153.56 489.146 153.84C489.866 154.173 490.446 154.487 490.886 154.78C491.326 155.06 491.7 155.42 492.006 155.86C492.326 156.3 492.486 156.833 492.486 157.46C492.486 158.127 492.306 158.74 491.946 159.3C491.586 159.86 491.08 160.307 490.426 160.64C489.773 160.973 489.026 161.14 488.186 161.14C487.626 161.14 487.04 161.067 486.426 160.92C485.826 160.76 485.266 160.533 484.746 160.24L484.946 158.6L485.166 158.5C485.633 158.953 486.146 159.293 486.706 159.52C487.28 159.733 487.826 159.84 488.346 159.84C488.853 159.84 489.3 159.74 489.686 159.54C490.086 159.34 490.386 159.073 490.586 158.74C490.8 158.407 490.906 158.053 490.906 157.68C490.906 157.12 490.693 156.673 490.266 156.34C489.84 155.993 489.193 155.62 488.326 155.22C487.62 154.873 487.053 154.567 486.626 154.3C486.2 154.02 485.833 153.667 485.526 153.24C485.22 152.8 485.066 152.267 485.066 151.64C485.066 150.987 485.24 150.387 485.586 149.84C485.946 149.293 486.44 148.867 487.066 148.56C487.706 148.24 488.433 148.08 489.246 148.08ZM497.569 151.68C498.436 151.68 499.116 151.893 499.609 152.32C500.116 152.747 500.369 153.333 500.369 154.08C500.369 154.307 500.329 155.127 500.249 156.54C500.169 157.953 500.129 158.78 500.129 159.02C500.129 159.313 500.176 159.52 500.269 159.64C500.363 159.747 500.523 159.8 500.749 159.8C500.949 159.8 501.176 159.76 501.429 159.68L501.589 159.82L501.429 160.72C501.043 160.947 500.663 161.08 500.289 161.12C499.876 161.08 499.543 160.933 499.289 160.68C499.049 160.427 498.923 160.08 498.909 159.64H498.769C498.049 160.373 497.336 160.873 496.629 161.14C495.736 161.14 495.036 160.92 494.529 160.48C494.036 160.027 493.789 159.413 493.789 158.64C493.789 158.053 493.943 157.587 494.249 157.24C494.569 156.893 495.036 156.647 495.649 156.5L498.889 155.74L498.909 154.44C498.909 153.92 498.769 153.52 498.489 153.24C498.223 152.96 497.836 152.82 497.329 152.82C496.876 152.82 496.423 152.927 495.969 153.14C495.516 153.353 495.029 153.687 494.509 154.14L494.349 154.06L494.149 152.92C495.256 152.093 496.396 151.68 497.569 151.68ZM495.969 157.46C495.703 157.54 495.509 157.653 495.389 157.8C495.269 157.933 495.209 158.14 495.209 158.42C495.209 158.86 495.329 159.207 495.569 159.46C495.823 159.7 496.156 159.82 496.569 159.82C497.303 159.82 498.049 159.347 498.809 158.4L498.869 156.76L495.969 157.46ZM580.145 148.08C581.065 148.08 582.018 148.28 583.005 148.68L582.745 150.22L582.465 150.3C582.078 150.007 581.665 149.78 581.225 149.62C580.798 149.46 580.371 149.38 579.945 149.38C579.451 149.38 579.018 149.48 578.645 149.68C578.285 149.88 578.005 150.14 577.805 150.46C577.618 150.78 577.525 151.113 577.525 151.46C577.525 151.82 577.631 152.14 577.845 152.42C578.071 152.687 578.351 152.92 578.685 153.12C579.018 153.32 579.471 153.56 580.045 153.84C580.765 154.173 581.345 154.487 581.785 154.78C582.225 155.06 582.598 155.42 582.905 155.86C583.225 156.3 583.385 156.833 583.385 157.46C583.385 158.127 583.205 158.74 582.845 159.3C582.485 159.86 581.978 160.307 581.325 160.64C580.671 160.973 579.925 161.14 579.085 161.14C578.525 161.14 577.938 161.067 577.325 160.92C576.725 160.76 576.165 160.533 575.645 160.24L575.845 158.6L576.065 158.5C576.531 158.953 577.045 159.293 577.605 159.52C578.178 159.733 578.725 159.84 579.245 159.84C579.751 159.84 580.198 159.74 580.585 159.54C580.985 159.34 581.285 159.073 581.485 158.74C581.698 158.407 581.805 158.053 581.805 157.68C581.805 157.12 581.591 156.673 581.165 156.34C580.738 155.993 580.091 155.62 579.225 155.22C578.518 154.873 577.951 154.567 577.525 154.3C577.098 154.02 576.731 153.667 576.425 153.24C576.118 152.8 575.965 152.267 575.965 151.64C575.965 150.987 576.138 150.387 576.485 149.84C576.845 149.293 577.338 148.867 577.965 148.56C578.605 148.24 579.331 148.08 580.145 148.08ZM594.038 159.82L593.878 160.72C593.492 160.947 593.112 161.08 592.738 161.12C592.352 161.067 592.038 160.933 591.798 160.72C591.572 160.493 591.412 160.16 591.318 159.72H591.198C590.398 160.44 589.572 160.907 588.718 161.12C587.732 161.12 586.978 160.887 586.458 160.42C585.952 159.953 585.705 159.287 585.718 158.42L585.738 155.88L585.678 151.94L587.278 151.8L587.158 158.04C587.158 158.587 587.285 159.013 587.538 159.32C587.805 159.627 588.192 159.78 588.698 159.78C589.525 159.78 590.352 159.38 591.178 158.58V151.94L592.698 151.8L592.598 159.04C592.598 159.32 592.638 159.52 592.718 159.64C592.812 159.747 592.965 159.8 593.178 159.8C593.392 159.8 593.625 159.76 593.878 159.68L594.038 159.82Z" fill="black"/>
</svg>
